<svg width="153" height="26" viewBox="0 0 153 26" fill="none" xmlns="http://www.w3.org/2000/svg">
<path d="M39.5137 17.8262V18.3698H28.5551C28.5551 19.438 28.8317 20.2582 29.3849 20.8305C29.9381 21.3836 30.7487 21.6602 31.8169 21.6602C32.3701 21.6602 32.847 21.5553 33.2476 21.3455C33.6672 21.1357 34.0201 20.7923 34.3062 20.3154L39.3134 20.2868C38.8937 22.0417 37.9591 23.3197 36.5094 24.1209C35.0787 24.922 33.5241 25.3226 31.8455 25.3226C29.423 25.3226 27.4011 24.6645 25.7797 23.3484C24.1583 22.0131 23.3477 20.077 23.3477 17.54C23.3477 15.0984 24.1011 13.1814 25.608 11.7889C27.134 10.3965 29.0892 9.70023 31.4736 9.70023C34.0296 9.70023 36.0039 10.4346 37.3964 11.9034C38.8079 13.3722 39.5137 15.356 39.5137 17.8548V17.8262ZM28.641 15.3655H34.6782C34.5447 14.6788 34.1918 14.1256 33.6195 13.706C33.0663 13.2863 32.4369 13.0765 31.7311 13.0765C30.9681 13.0765 30.3005 13.2768 29.7282 13.6774C29.156 14.0589 28.7936 14.6311 28.641 15.3941V15.3655Z" fill="white"/>
<path d="M57.9501 10.158V24.8362H52.7427V23.2053H52.6854C52.2658 23.892 51.6936 24.407 50.9687 24.7504C50.2439 25.0746 49.4904 25.2558 48.7083 25.294C48.632 25.3131 48.5557 25.3226 48.4794 25.3226C48.4031 25.3226 48.3268 25.3226 48.2505 25.3226C46.076 25.3226 44.2925 24.5501 42.9 23.005C41.5266 21.4409 40.8399 19.6097 40.8399 17.5114C40.8399 15.4132 41.5171 13.5915 42.8714 12.0464C44.2448 10.4823 46.0188 9.70023 48.1933 9.70023C48.2887 9.70023 48.384 9.70023 48.4794 9.70023C48.5748 9.70023 48.6702 9.70977 48.7655 9.72884C49.5095 9.78607 50.2343 9.97682 50.9401 10.3011C51.6649 10.6063 52.2658 11.045 52.7427 11.6173V10.158H57.9501ZM49.5667 14.1924C48.5176 14.2115 47.6973 14.5548 47.106 15.2224C46.5147 15.871 46.219 16.6435 46.219 17.54C46.219 18.4747 46.5147 19.2568 47.106 19.8863C47.6973 20.5157 48.5176 20.8305 49.5667 20.8305C50.6349 20.8305 51.4551 20.5157 52.0274 19.8863C52.6187 19.2568 52.9144 18.4747 52.9144 17.54C52.9144 16.6435 52.6187 15.871 52.0274 15.2224C51.4551 14.5548 50.6349 14.221 49.5667 14.221V14.1924Z" fill="white"/>
<path d="M66.6094 1.08789V24.8362H61.402V1.08789H66.6094Z" fill="white"/>
<path d="M75.2434 10.158V24.8362H70.036V10.158H75.2434ZM72.6397 1.60291C73.4409 1.62199 74.1276 1.91765 74.6998 2.4899C75.272 3.06215 75.5582 3.74885 75.5582 4.54999C75.5582 5.35114 75.272 6.03784 74.6998 6.61009C74.1276 7.18234 73.4409 7.46846 72.6397 7.46846C71.8386 7.46846 71.1519 7.18234 70.5796 6.61009C70.0074 6.03784 69.7212 5.35114 69.7212 4.54999C69.7212 3.74885 70.0074 3.06215 70.5796 2.4899C71.1519 1.91765 71.8386 1.63153 72.6397 1.63153V1.60291Z" fill="white"/>
<path d="M83.8775 10.158V12.0464H83.9347C84.5451 11.169 85.2222 10.5586 85.9662 10.2153C86.7292 9.8719 87.6161 9.70023 88.6271 9.70023C90.6109 9.70023 92.0225 10.2629 92.8618 11.3884C93.7201 12.5138 94.1493 13.9826 94.1493 15.7947V24.8362H88.9419V17.6831C88.9419 17.6449 88.9419 17.5973 88.9419 17.54C88.9419 17.4828 88.9419 17.4256 88.9419 17.3684C88.9419 17.1967 88.9419 17.0155 88.9419 16.8247C88.9419 16.634 88.9323 16.4432 88.9132 16.2525C88.8751 15.6611 88.7034 15.1175 88.3982 14.6216C88.093 14.1065 87.4922 13.849 86.5956 13.849C85.5465 13.849 84.8312 14.1924 84.4497 14.8791C84.0682 15.5467 83.8775 16.3383 83.8775 17.2539V24.8362H78.67V10.158H83.8775Z" fill="white"/>
<path d="M103.28 14.4499V24.8362H98.073V14.4499H96.3849V10.158H98.073V5.75171H103.28V10.158H106.228V14.4499H103.28Z" fill="white"/>
<path d="M122.976 17.8262V18.3698H112.017C112.017 19.438 112.294 20.2582 112.847 20.8305C113.4 21.3836 114.211 21.6602 115.279 21.6602C115.832 21.6602 116.309 21.5553 116.71 21.3455C117.129 21.1357 117.482 20.7923 117.768 20.3154L122.776 20.2868C122.356 22.0417 121.421 23.3197 119.972 24.1209C118.541 24.922 116.986 25.3226 115.308 25.3226C112.885 25.3226 110.863 24.6645 109.242 23.3484C107.621 22.0131 106.81 20.077 106.81 17.54C106.81 15.0984 107.563 13.1814 109.07 11.7889C110.596 10.3965 112.551 9.70023 114.936 9.70023C117.492 9.70023 119.466 10.4346 120.859 11.9034C122.27 13.3722 122.976 15.356 122.976 17.8548V17.8262ZM112.103 15.3655H118.14C118.007 14.6788 117.654 14.1256 117.082 13.706C116.529 13.2863 115.899 13.0765 115.193 13.0765C114.43 13.0765 113.763 13.2768 113.19 13.6774C112.618 14.0589 112.256 14.6311 112.103 15.3941V15.3655Z" fill="white"/>
<path d="M130.568 10.158V12.0464H130.625C131.236 11.169 131.913 10.5586 132.657 10.2153C133.42 9.8719 134.307 9.70023 135.318 9.70023C137.302 9.70023 138.713 10.2629 139.553 11.3884C140.411 12.5138 140.84 13.9826 140.84 15.7947V24.8362H135.633V17.6831C135.633 17.6449 135.633 17.5973 135.633 17.54C135.633 17.4828 135.633 17.4256 135.633 17.3684C135.633 17.1967 135.633 17.0155 135.633 16.8247C135.633 16.634 135.623 16.4432 135.604 16.2525C135.566 15.6611 135.394 15.1175 135.089 14.6216C134.784 14.1065 134.183 13.849 133.286 13.849C132.237 13.849 131.522 14.1924 131.14 14.8791C130.759 15.5467 130.568 16.3383 130.568 17.2539V24.8362H125.361V10.158H130.568Z" fill="white"/>
<path d="M149.971 14.4499V24.8362H144.764V14.4499H143.076V10.158H144.764V5.75171H149.971V10.158H152.918V14.4499H149.971Z" fill="white"/>
<path fill-rule="evenodd" clip-rule="evenodd" d="M3.2836 0H9.46157C16.3107 0 21.8625 5.5601 21.863 12.4182C21.863 19.2769 16.3107 24.8364 9.46211 24.8364H3.2836C1.47022 24.8364 0 23.3641 0 21.5482V3.28818C0 1.47227 1.47022 0 3.2836 0ZM3.37608 15.3545L3.37578 15.3534L16.4169 11.8591L16.4172 11.8602C17.3821 15.4614 15.245 19.163 11.6438 20.1279C8.0426 21.0928 4.34102 18.9557 3.37608 15.3545Z" fill="white"/>
</svg>
